<svg
  xmlns="http://www.w3.org/2000/svg"
  width="16"
  height="16"
  viewBox="0 0 16 16"
>
  <path
    fill="#666"
    fill-rule="evenodd"
    d="M2.519 9.527L.704 14.366c-.07.185-.043.393.07.556.114.163.299.26.497.26h13.306c.199 0 .384-.097.498-.26.112-.163.139-.37.07-.556L13.33 9.527c-.089-.236-.314-.393-.567-.393H11.76c.65-1.1.995-2.352 1.002-3.629 0-1.729-.922-3.326-2.42-4.19-1.497-.864-3.34-.864-4.838 0-1.497.864-2.42 2.461-2.42 4.19.062 1.272.413 2.513 1.026 3.63H3.086c-.253 0-.478.156-.567.392zm5.405-7.65c.963 0 1.886.381 2.566 1.062.681.68 1.063 1.604 1.063 2.566 0 3.203-2.73 5.324-3.64 5.943C4.362 9.22 4.297 5.656 4.297 5.505c0-.962.382-1.885 1.063-2.566.68-.68 1.603-1.063 2.565-1.063zM4.9 10.343c.745.951 1.67 1.746 2.722 2.339.187.108.418.108.605 0 1.022-.625 1.932-1.416 2.694-2.34H12.344l1.36 3.63H2.145l1.36-3.63H4.9zm3.024-7.258c.642 0 1.257.255 1.71.709.454.453.71 1.069.71 1.71 0 .642-.256 1.257-.71 1.71-.453.454-1.068.71-1.71.71-.64 0-1.256-.256-1.71-.71-.454-.453-.709-1.068-.709-1.71 0-.641.256-1.257.71-1.71.453-.454 1.068-.709 1.71-.709zM8.78 4.65c-.346-.346-.866-.45-1.319-.262-.451.187-.746.628-.746 1.117 0 .668.541 1.21 1.21 1.21.488 0 .93-.295 1.117-.747.187-.452.084-.972-.262-1.318z"
  />
</svg>
