<svg xmlns="http://www.w3.org/2000/svg" xmlns:xlink="http://www.w3.org/1999/xlink" width="514" height="455" viewBox="0 0 514 455">
    <defs>
        <path id="prefix__a" d="M290 494.122c123.712 0 224-100.267 224-223.954V.122H0l.622 356.166c22.919 1.372 50.722 2.058 83.409 2.058C118.272 438.191 197.603 494.122 290 494.122z"/>
    </defs>
    <g fill="none" fill-rule="evenodd" transform="translate(0 -40)">
        <circle cx="290" cy="270.122" r="224" fill="#09425A"/>
        <mask id="prefix__b" fill="#fff">
            <use xlink:href="#prefix__a"/>
        </mask>
        <ellipse cx="275.5" cy="492" fill="#033950" mask="url(#prefix__b)" rx="240.5" ry="14"/>
        <g mask="url(#prefix__b)">
            <g>
                <g>
                    <path fill="#B28B67" d="M101.595 44.287c6.39 11.92 5.63 42.153-2.627 44.283-3.294.85-10.31-1.232-17.45-5.54l4.483 31.733H59.539l9.11-42.496c-5.08-5.968-8.52-13.283-7.945-21.478 1.656-23.616 34.502-18.42 40.891-6.502z" transform="translate(0 28) translate(61.744)"/>
                    <path fill="#191847" d="M62.663 44.74c6.034-24.81 40.173-9.406 46.742-13.592 1.436 9.008-3.195 16.272-19.478 14.868-3.592 2.009-6.148 5.776-9.225 10.718-.749-.294-1.565-.456-2.42-.456-3.653 0-6.615 2.964-6.615 6.62 0 1.857.764 3.535 1.993 4.737-1.53 2.162-3.246 4.421-5.212 6.752-7.328-4.4-12.78-17.217-5.808-29.6z" transform="translate(0 28) translate(61.744)"/>
                </g>
                <g>
                    <path fill="#997659" d="M48.513 0L88.902 139.29 107.898 243.871 126.965 243.871 107.932 0z" transform="translate(0 28) translate(63.95 206.352)"/>
                    <path fill="#B28B67" d="M30.362 0c2.819 72.36 1.707 111.828 1.076 118.402-.63 6.574-4.211 50.604-28.611 127.676h19.83C54.973 172.14 66.254 128.11 69.96 118.402 73.665 108.693 84.61 69.226 100.592 0h-70.23z" transform="translate(0 28) translate(63.95 206.352)"/>
                    <path fill="#107D93" d="M47.646 0c10.506 47.93 28.676 124.439 54.511 229.525h27.887C132.104 121.664 123.342 50.673 108.168 0H47.646z" transform="translate(0 28) translate(63.95 206.352)"/>
                    <path fill="#109BBB" d="M30.222 0c2.76 72.36-4.393 143.649-26.55 230.652h29.755C65.8 157.818 89.003 86.882 104.86 0h-74.64z" transform="translate(0 28) translate(63.95 206.352)"/>
                    <path fill="#191847" d="M0 260.423l1.094-17.656c6.407 1.876 14.431 1.14 24.073-2.207 10.464 7.419 23.662 12.462 39.594 15.131.98.164 1.642 1.092 1.478 2.073-.01.065-.025.13-.043.193l-1.637 5.777H2.188L0 260.424zM103.642 260.423l1.094-17.656c6.407 1.876 14.431 1.14 24.073-2.207 10.464 7.419 23.662 12.462 39.594 15.131.98.164 1.642 1.092 1.478 2.073-.01.065-.025.13-.043.193l-1.637 5.777H105.831l-2.189-3.31z" transform="translate(0 28) translate(63.95 206.352)"/>
                </g>
                <g>
                    <path fill="#B28B67" d="M54.762 138.037c-15.858 42.866-25.157 66.314-27.898 70.345-2.01 2.956-14.942 10.976-23.75 15.36-3.535 1.759-2.598 4.778-1.486 5.702 9.047 7.51 16.585 1.194 25.72-1.592 10.007-3.053 7.48 9.186 15.394 6.899-1.566-5.45-5.572-15.746-2.166-21.657 1.514-2.627 12.752-26.7 33.714-72.218l-19.528-2.839z" transform="translate(0 28) translate(0 38.009)"/>
                    <g>
                        <path fill="#B28B67" d="M51.977 105.985l45.308 24.791c7.533 8.941 14.956 15.885 22.268 20.83 2.235.932 6.143 1.496 2.49-4.986-3.653-6.482-7.204-13.465-5.341-15.463 1.862-1.998 6.505.791 8.727-2.528 1.481-2.213-6.45-5.705-23.794-10.478l-32.919-30.12-16.739 17.954z" transform="translate(0 28) translate(0 38.009) rotate(-30 186.192 -190.163)"/>
                        <path fill="#C5CFD6" d="M10.59 5.18l12.1-4.004C39.105 42.214 63.586 81.92 104.488 115.46l-10.115 17.464C58.426 111.732 24.398 95.27 10.59 63.47c-4.635-10.673-.378-45.527 0-58.288z" transform="translate(0 28) translate(0 38.009) rotate(-30 186.192 -190.163)"/>
                    </g>
                    <path fill="#323337" d="M94.822 173.86c34.663 3.679 61.946 3.679 81.85 0 2.467-.455 2.856-4.587 1.712-7.392-17.809-43.672-30.021-81.778-30.021-112.112-3.268 1.649-8.987 1.896-17.156.741-21.957 31.26-32.05 67.127-36.385 118.764z" transform="translate(0 28) translate(0 38.009)"/>
                    <path fill="#DDE3E9" d="M125.78 51.903l-.032.573 9.15.001c2.11 12.416 8.717 178.985 28.978 236.218l.618 1.7H52.246c2.433-50.89 21.63-112.023 41.076-163.18-17.196 15.748-32.182 42.432-44.961 80.051l-21.025-5.401c15.633-67.42 47.773-116.973 96.422-148.66l.317-.728h.81l.896-.574z" transform="translate(0 28) translate(0 38.009)"/>
                </g>
                <g>
                    <g>
                        <path fill="#B28B67" d="M101.434 44.287c6.379 11.92 5.62 42.153-2.624 44.283-3.287.85-10.291-1.232-17.42-5.538l4.474 31.73h-26.42l9.096-42.495c-5.073-5.968-8.506-13.283-7.932-21.478 1.653-23.616 34.447-18.42 40.826-6.502z" transform="translate(0 28) matrix(-1 0 0 1 526 8) translate(11.116)"/>
                        <path fill="#191847" d="M90.998 31.306c-3.61-1.104-8.85-1.478-11.055-1.225 1.254-3.012 1.751-6.367 1.346-9.634-.395-3.175-1.81-5.878-3.119-8.711-.603-1.306-1.287-2.604-2.306-3.603-1.038-1.017-2.353-1.689-3.731-2.01-1.41-.327-2.886-.3-4.298-.002-.625.131-1.186.418-1.799.577-.628.163-.932-.23-1.388-.626-1.098-.954-2.707-1.425-4.096-1.593-1.558-.19-3.175.046-4.662.56-1.446.5-2.836 1.312-3.882 2.494-.466.527-.888 1.126-1.163 1.787-.113.272-.131.433-.402.532-.25.092-.542.095-.8.183-2.494.846-4.627 2.778-5.788 5.259-.677 1.447-.998 3.995-.91 6.85.088 2.856 2.66 10.307 5.066 13.025 2.147 2.426 5.304 4.027 8.35 4.728-2.022 2.317-3.368 5.212-4.363 8.156-1.081 3.199-1.75 6.522-1.997 9.908-.235 3.217-.257 6.619.495 9.767.704 2.945 2.21 5.36 4.722 6.892 1.151.702 2.39 1.23 3.635 1.712 1.228.475 2.459.936 3.745 1.203 2.433.504 5.237.417 7.112-1.524.675-.7 1.418-1.58 1.911-2.435.177-.307.284-.509.069-.81-.258-.36-.675-.635-1.007-.917-1.89-1.605-3.059-3.749-3.354-6.296-.299-2.585.394-5.921 2.9-7.05 3.095-1.392 6.503.207 9.254 1.696 1.169-4.135 3.569-7.859 7.332-9.756 4.163-2.099 8.94-2.344 13.218-4.145 1.115-.47 2.25-1.002 3.071-1.958.343-.4.746-.918.883-1.446.18-.694-.267-1.276-.612-1.818-1.83-2.87-8.767-8.667-12.377-9.77z" transform="translate(0 28) matrix(-1 0 0 1 526 8) translate(11.116)"/>
                    </g>
                    <g>
                        <path fill="#AABEC6" d="M61.754 0L101.664 140.393 130.783 243.871 152.021 243.871 121.078 0z" transform="translate(0 28) matrix(-1 0 0 1 526 8) translate(0 206.352)"/>
                        <path fill="#D0D8DA" d="M51.08 0c-.923 72.36-4.07 111.828-5.04 118.402-.969 6.574-15.624 48.397-43.966 125.469h22.001C60.156 169.934 80.298 128.11 84.5 118.4 88.701 108.694 101.668 69.227 121.2 0H51.08z" transform="translate(0 28) matrix(-1 0 0 1 526 8) translate(0 206.352)"/>
                        <path fill="#191847" d="M.107 263.734l1.101-23.174h23.118c10.961 7.725 25.272 13.978 42.932 18.76v4.414H25.426l-14.31-2.207v2.207H.107zM127.803 263.734l1.1-23.174h23.118c10.962 7.725 25.273 13.978 42.932 18.76v4.414h-41.83l-14.312-2.207v2.207h-11.008z" transform="translate(0 28) matrix(-1 0 0 1 526 8) translate(0 206.352)"/>
                    </g>
                    <g>
                        <g>
                            <path fill="#997659" d="M25.877 39.077l38.21-20.978C70.44 10.535 76.7 4.661 82.868.476c1.884-.788 5.18-1.266 2.098 4.218-3.082 5.483-6.077 11.389-4.507 13.078 1.57 1.69 5.485-.67 7.358 2.136 1.248 1.871-5.44 4.827-20.066 8.868L39.987 54.258l-14.11-15.181z" transform="translate(0 28) matrix(-1 0 0 1 526 8) translate(29.952 90.486) rotate(60 4.808 126.273)"/>
                            <path fill="#107D93" d="M7.269 34.404c13.383-.142 31.23-2.976 50.273-15.092l7.478 16.717C51.885 49.097 33.416 59.833 17.267 59.38c-12.727-.36-19.231-15.79-9.998-24.975z" transform="translate(0 28) matrix(-1 0 0 1 526 8) translate(29.952 90.486) rotate(60 4.808 126.273)"/>
                        </g>
                        <path stroke="#C5CFD6" stroke-linecap="round" stroke-width="4" d="M209.983 86.072c7.44 4.742 8.774 9.963 4.001 15.665-7.159 8.552-7.157 21.286 0 25.689M179.458 81.346c-5.085 12.731-8.092 20.96-9.02 24.685-1.392 5.587 0 21.789 12.05 14.296" transform="translate(0 28) matrix(-1 0 0 1 526 8) translate(29.952 90.486)"/>
                        <path fill="#DDE3E9" d="M196.217 59.303s9.668-1.936 16.025 12.11c6.358 14.045-11.597 23.455-16.025 23.574-4.429.12-29.646-4.11-22.802-21.152 6.845-17.042 22.802-14.532 22.802-14.532z" transform="translate(0 28) matrix(-1 0 0 1 526 8) translate(29.952 90.486)"/>
                        <path stroke="#C5CFD6" stroke-linecap="round" stroke-width="4" d="M181.839 79.91c6.378 3.127 10.8 4.69 13.265 4.69s6.11-2.903 10.934-8.711" transform="translate(0 28) matrix(-1 0 0 1 526 8) translate(29.952 90.486)"/>
                        <path fill="#997659" d="M160.095 81.9l16.026-6.237c7.521 3.56 12.247 4.228 14.175 2.002 2.257-1.057-8.058-4.586-4.63-7.306 3.427-2.72 16.099-5.737 16.047-8.137-.076-3.55-7.094-6.345-11.625-6.494-8.469-.278-12.999 1.58-22.166 7.876-4.794 3.293-11.08 5.924-18.859 7.894L160.095 81.9z" transform="translate(0 28) matrix(-1 0 0 1 526 8) translate(29.952 90.486)"/>
                        <path fill="#109BBB" d="M72.03 0c1.685 21.704 10.168 45.624 17.13 69.256 14.207 3.552 38.033-.636 71.478-12.566 8.295 17.203 12.13 29.468 11.504 36.794-28.694 15.025-53.286 21.723-73.546 22.163.651 12.047-.811 23.515-5.727 33.993-10.105 21.538-69.274 1.591-89.168 5.517-12.459-40.558 11.63-57.041 11.65-82.993C15.37 43.744 38.135 0 41.485 0z" transform="translate(0 28) matrix(-1 0 0 1 526 8) translate(29.952 90.486)"/>
                    </g>
                </g>
            </g>
        </g>
    </g>
</svg>
