<svg
  xmlns="http://www.w3.org/2000/svg"
  xmlns:xlink="http://www.w3.org/1999/xlink"
  width="120"
  height="90"
  viewBox="0 0 120 90"
>
  <defs>
    <path id="prefix__a" d="M0 0.264L74.194 0.264 74.194 70 0 70z" />
  </defs>
  <g fill="none" fill-rule="evenodd" transform="translate(23 10)">
    <mask id="prefix__b" fill="#fff">
      <use xlink:href="#prefix__a" />
    </mask>
    <path
      fill="#425058"
      d="M38.215 16.78l.001.001M46.111 63.714c-2.779-3.334-5.577-6.65-8.4-9.945-.353-.411-.744-.757-1.183-1.061-.441-.3-.926-.56-1.501-.744h-.001c-6.669-2.12-13.341-4.17-19.97-6.29-.844-.267-1.674-.665-2.274-1.106-.138-.1-.253-.237-.344-.427-.09-.187-.144-.425-.143-.655 0-.209.043-.405.11-.558l.04-.053c.044-.047.154-.134.353-.208.196-.075.472-.132.794-.131.084 0 .171.003.26.012 2.084.182 4.126.289 6.418.444l6.767.458-4.584-4.999c-.207-.225-.367-.405-.524-.578-.156-.172-.313-.343-.495-.527-5.164-5.167-10.327-10.336-15.5-15.498-.243-.242-.372-.438-.433-.566-.06-.133-.071-.193-.075-.302 0-.073.01-.174.056-.33v-.002c.047-.159.097-.259.14-.327.065-.1.105-.138.193-.197.089-.055.242-.127.518-.177.058-.01.098-.013.129-.013.087.005.123.005.286.088.155.082.408.27.71.574 4.43 4.437 8.865 8.864 13.285 13.299l.036.04c.08.092.282.393.608.822l1.959 2.545 2.182-2.356L26.6 33.79l1.737-1.874-1.767-1.846c-.281-.293-.576-.615-.923-.964C19.77 23.23 13.889 17.362 8.028 11.481c-.269-.27-.426-.513-.51-.7-.086-.188-.104-.316-.105-.41.002-.096.017-.163.069-.267.054-.101.156-.243.376-.414.098-.074.175-.11.24-.134.066-.022.123-.032.197-.033.102 0 .244.022.448.115.201.093.458.26.739.54 5.828 5.818 11.649 11.644 17.468 17.47v.001c.06.06.148.158.277.312.128.153.295.36.505.604l1.852 2.16 2.07-1.953 1.082-1.022 1.975-1.862-1.864-1.974c-.307-.325-.597-.65-.96-1.014-4.506-4.51-9.012-9.02-13.525-13.525-.23-.231-.35-.414-.407-.537-.056-.127-.069-.19-.071-.302 0-.086.013-.209.075-.4.103-.322.25-.5.303-.541l.013-.01c.217.01.594.092.925.233.333.135.624.334.727.44 4.486 4.303 8.863 8.768 13.297 13.224.047.074.182.318.42.688l1.777 2.702 2.352-2.219 1.177-1.11 1.938-1.826-1.79-1.972c-.238-.26-.5-.58-.882-.964-2.988-2.994-5.98-5.977-8.96-8.965-.326-.328-.522-.621-.625-.84-.105-.222-.123-.361-.123-.45.001-.076.01-.125.044-.204.035-.078.1-.19.249-.34.149-.146.26-.212.34-.247.082-.034.134-.044.211-.045.092 0 .232.02.452.123.218.103.51.296.833.62 7.426 7.42 14.766 15 22.415 22.33 4.83 4.626 9.922 8.862 14.87 13.132-7.29 7.253-14.562 14.523-21.811 21.819zm27.895-23.032c-.177-.504-.427-.877-.662-1.167-.237-.29-.469-.509-.698-.709-5.384-4.677-10.83-9.16-15.84-13.961C49.255 17.61 41.94 10.057 34.472 2.593c-.7-.698-1.478-1.272-2.34-1.682-.859-.41-1.808-.647-2.78-.647-.81-.001-1.628.168-2.375.495-.75.326-1.426.802-2.005 1.378-.58.578-1.06 1.254-1.39 2.005-.012.028-.02.057-.032.086-.696-.63-1.462-1.081-2.263-1.419-.855-.352-1.746-.58-2.689-.64-.112-.007-.223-.01-.334-.01-.675-.001-1.345.125-1.954.364-.918.356-1.68.95-2.256 1.636-.474.565-.827 1.195-1.09 1.856-.592-.532-1.24-.978-1.947-1.304-.847-.392-1.775-.615-2.722-.614-.663 0-1.332.11-1.966.33-.635.218-1.234.544-1.77.955-.78.597-1.433 1.343-1.883 2.203-.452.857-.691 1.824-.689 2.787-.001.924.214 1.835.596 2.669.332.723.793 1.387 1.345 1.99-.073.03-.148.05-.22.082-.806.359-1.56.904-2.153 1.602C.959 17.41.533 18.24.278 19.113.098 19.721 0 20.352 0 20.98c-.003.942.227 1.866.613 2.659.385.798.909 1.47 1.488 2.05 3.812 3.803 7.618 7.614 11.426 11.425-1.219.01-2.408.279-3.48.856-.544.294-1.057.67-1.506 1.136-.45.464-.833 1.02-1.106 1.643-.386.883-.566 1.815-.566 2.737 0 1.02.22 2.036.667 2.981.446.944 1.133 1.819 2.05 2.487 1.205.875 2.522 1.473 3.817 1.89 6.665 2.13 13.336 4.18 19.967 6.287.006.002.056.028.106.064.05.037.1.087.114.102 3.136 3.663 6.245 7.344 9.324 11.05.26.308.545.633 1.013.974.235.167.522.336.874.466.348.13.764.215 1.18.213.358 0 .708-.06 1.013-.154.462-.144.823-.353 1.117-.56.295-.21.531-.426.752-.646 7.968-8.025 15.968-16.021 23.989-23.998.275-.278.556-.583.825-1.03.133-.223.26-.486.359-.794.096-.308.16-.663.158-1.025.001-.39-.072-.778-.188-1.111z"
      mask="url(#prefix__b)"
    />
  </g>
</svg>
