<svg
  xmlns="http://www.w3.org/2000/svg"
  width="120"
  height="90"
  viewBox="0 0 120 90"
>
  <path
    fill="#425058"
    fill-rule="evenodd"
    d="M58.604 5.212c1.398 0 2.542 1.144 2.542 2.541v4.856c0 .155-.017.304-.043.45v6.5h7.746c1.183 0 2.151.968 2.151 2.151v3.704c0 .353-.094.681-.246.976 1.542.386 2.926 1.179 4.009 2.263 1.554 1.551 2.53 3.716 2.53 6.088v41.642c0 2.372-.976 4.536-2.53 6.088C73.21 84.025 71.047 85 68.675 85H46.808c-2.371 0-4.536-.975-6.088-2.53-1.554-1.55-2.53-3.715-2.529-6.087V34.74c0-2.372.975-4.537 2.53-6.088 1.023-1.026 2.316-1.791 3.756-2.198-.173-.31-.281-.662-.281-1.04V21.71c0-1.183.968-2.15 2.151-2.15h7.746V15.15H33.542c-1.398 0-2.542-1.143-2.542-2.542v-1.144c0-1.398 1.144-2.542 2.542-2.542zM72.798 70.1c-.873.18-1.882.33-3.02.46-3.332.378-7.7.562-12.074.562-2.607 0-5.213-.065-7.597-.198-2.386-.133-4.544-.33-6.28-.604-.408-.064-.782-.134-1.142-.207v6.269c0 1.132.459 2.152 1.213 2.91.758.754 1.778 1.212 2.91 1.213h21.867c1.132 0 2.152-.459 2.91-1.213.754-.757 1.212-1.778 1.213-2.91zM42.685 51.129v16.227c.81.195 1.933.378 3.248.526 3.172.36 7.475.545 11.77.545 2.522 0 5.043-.063 7.339-.189 2.295-.125 4.367-.314 5.969-.558.695-.104 1.301-.222 1.787-.343v-16.18l-.14.033c-1.219.255-2.656.468-4.252.641-3.19.346-7.014.533-10.873.533-2.587 0-5.19-.084-7.626-.265-2.436-.18-4.704-.455-6.64-.844-.2-.04-.39-.084-.582-.126zm16.63 4.658v2.696h2.696v4.045h-2.696v2.697H55.27v-2.697h-2.697v-4.045h2.697v-2.696h4.045zm9.36-25.169H46.808c-1.132 0-2.152.459-2.91 1.213-.754.758-1.212 1.778-1.213 2.91V48.36c.353.088.72.174 1.115.253 1.183.238 2.545.437 4.019.594 2.948.314 6.343.461 9.714.461 4.947.001 9.86-.32 13.231-.87.77-.125 1.453-.262 2.034-.406v-13.65c0-1.132-.46-2.152-1.213-2.91-.758-.754-1.778-1.213-2.91-1.213z"
  />
</svg>
