<svg
  xmlns="http://www.w3.org/2000/svg"
  width="120"
  height="90"
  viewBox="0 0 120 90"
>
  <g fill="#425058" fill-rule="evenodd">
    <path
      d="M58.82 28.771c-.124.41-.287.745-.49 1.047-.356.524-.852.972-1.589 1.385-1.098.618-2.74 1.089-4.758 1.358-2.017.275-4.394.365-6.952.364-2.229 0-4.318-.067-6.153-.267-1.376-.148-2.608-.372-3.638-.677-.773-.228-1.432-.5-1.964-.803-.4-.227-.73-.469-1.002-.725-.407-.388-.693-.797-.909-1.328-.213-.53-.353-1.201-.354-2.094.001-1.407.353-2.78 1.023-4.086 1.002-1.956 2.745-3.748 5.003-5.038 2.257-1.29 5.011-2.075 7.994-2.074 3.974-.003 7.55 1.399 10.071 3.518 1.261 1.059 2.255 2.29 2.925 3.594.67 1.307 1.022 2.68 1.023 4.086 0 .704-.089 1.273-.23 1.74zM44.845.162C49.081.16 52.812 1.014 56 2.581c3.188 1.562 5.808 3.826 7.884 6.512 1.387 1.793 2.539 3.773 3.491 5.877 1.27 2.807 2.186 5.838 2.825 8.974.85 4.182 1.207 8.554 1.208 12.854 0 .772-.028 1.513-.07 2.237 6.043.713 11.956 2.67 17.25 5.659 1.083.612 1.355 1.992.799 3.045-.567 1.073-2.031 1.37-3.045.798-1.01-.57-2.038-1.102-3.09-1.59-.243-.112-.488-.223-.733-.331l-.372-.162-.03-.013c-.506-.208-1.015-.408-1.527-.598-2.787-1.033-5.68-1.796-8.617-2.259-.19-.029-.381-.053-.571-.081.1.012.12.01-.1-.017l-.032-.004-.106-.016.066.01c-.082-.009-.163-.02-.245-.028-.077-.01-.154-.015-.231-.023-.23 1.054-.515 2.051-.865 2.988-1.006 2.7-2.54 4.913-4.453 6.601-1.273 1.128-2.705 2.023-4.233 2.727-2.039.939-4.248 1.542-6.568 1.936-3.092.523-6.387.674-9.789.675-2.87 0-5.664-.11-8.325-.456-2.66-.349-5.192-.933-7.519-1.927-1.55-.663-3.007-1.51-4.315-2.587-1.746-1.434-3.211-3.28-4.27-5.52-.441-.93-.806-1.932-1.11-2.994-.324.032-.647.067-.97.106-.098.014-.198.027-.296.042-.264.04-.528.082-.79.126-1.366.23-2.72.527-4.058.884-1.626.433-3.23.955-4.798 1.567-.24.094-.478.19-.716.287l-.108.044-.293.127c-.423.186-.843.377-1.26.576-.905.432-1.793.898-2.667 1.392-1.086.612-2.384.227-3.045-.799-.644-1-.216-2.471.799-3.045 2.087-1.178 4.27-2.18 6.512-3.03 2.901-1.098 5.92-1.904 8.985-2.381.62-.097 1.247-.19 1.876-.268-.123-1.17-.193-2.397-.193-3.698 0-4.16.158-8.418.739-12.521.584-4.103 1.587-8.06 3.35-11.602 1.175-2.358 2.695-4.53 4.644-6.374 2.595-2.462 5.946-4.305 10.044-5.285 2.343-.564 4.93-.854 7.784-.854zm0 4.945c-4.254.001-7.574.73-10.196 1.938-2.622 1.215-4.584 2.903-6.148 5.025-1.039 1.415-1.892 3.03-2.584 4.814-.924 2.378-1.558 5.057-1.973 7.909-.553 3.803-.716 7.908-.715 12.005 0 3.29.451 5.87 1.205 7.882.759 2.013 1.795 3.471 3.1 4.632.87.771 1.874 1.408 3.023 1.938 1.53.705 3.32 1.212 5.325 1.551 2.671.454 5.713.607 8.963.606 2.743 0 5.337-.107 7.685-.415 2.35-.306 4.447-.813 6.216-1.57 1.18-.505 2.215-1.117 3.116-1.858 1.2-.991 2.176-2.207 2.945-3.821 1.02-2.147 1.655-5.045 1.655-8.945 0-4.527-.428-9.099-1.418-13.273-.987-4.178-2.537-7.944-4.704-10.917-1.447-1.984-3.159-3.622-5.199-4.864-2.72-1.65-6.05-2.632-10.296-2.637zm.186 5.78c3.848.001 7.44 1.008 10.447 2.727 3.006 1.72 5.446 4.156 6.947 7.07 1 1.941 1.57 4.103 1.57 6.347 0 1.416-.229 2.743-.71 3.939-.48 1.196-1.212 2.242-2.105 3.08-.594.56-1.255 1.033-1.956 1.43-.936.53-1.944.93-3.004 1.243-1.412.417-2.92.679-4.503.852-2.112.228-4.36.294-6.686.295-2.672 0-5.24-.087-7.618-.409-2.375-.327-4.574-.873-6.498-1.937-1.276-.708-2.43-1.676-3.281-2.937-.485-.718-.867-1.523-1.127-2.387-.298-.988-.44-2.05-.44-3.17-.001-2.243.57-4.405 1.569-6.345.999-1.944 2.42-3.674 4.143-5.12 3.448-2.891 8.118-4.675 13.252-4.677zm9.47 9.572c-1.287 1.158-2.678 2.09-4.101 2.954-1.428.855-2.895 1.622-4.398 2.31-1.503.69-3.041 1.304-4.62 1.83-1.582.516-3.195.965-4.912 1.19 1.289-1.156 2.681-2.088 4.104-2.952 1.426-.855 2.894-1.622 4.396-2.313 1.502-.692 3.04-1.306 4.618-1.832 1.582-.517 3.196-.965 4.913-1.187zm-3.706-2.594c-1.287 1.159-2.679 2.09-4.102 2.954-1.426.855-2.894 1.622-4.397 2.31-1.504.69-3.041 1.304-4.62 1.83-1.582.516-3.196.964-4.912 1.19 1.29-1.156 2.68-2.087 4.103-2.952 1.428-.855 2.895-1.622 4.397-2.314 1.502-.691 3.04-1.305 4.618-1.83 1.582-.518 3.196-.966 4.913-1.188z"
      transform="translate(15 16)"
    />
    <path
      d="M71.23 43.477c.063.011.126.02.17.026l-.131-.021-.04-.005"
      transform="translate(15 16)"
    />
  </g>
</svg>
