<svg xmlns="http://www.w3.org/2000/svg" width="120" height="90" viewBox="0 0 120 90">
    <path fill="#425058" fill-rule="evenodd" d="M59.731 25c1.263 0 2.526.234 3.723.702l23.293 9.11c1.02.4 1.947.953 2.763 1.624l.52-.002c1.466 0 3.66.057 6.065.321 2.406.266 5.02.733 7.355 1.592 1.556.575 2.997 1.322 4.16 2.356.661.591 1.232 1.28 1.648 2.078.477.909.744 1.955.742 3.083 0 1.382-.386 2.718-1.012 3.976-.627 1.26-1.494 2.453-2.511 3.59-2.033 2.268-4.668 4.318-7.285 6.075-2.994 2.006-5.968 3.62-7.972 4.636-1.118 1.505-2.648 2.712-4.473 3.426l-13.479 5.271c-4.352 1.703-8.944 2.554-13.537 2.554-4.592 0-9.185-.851-13.537-2.554l-13.478-5.271c-1.918-.75-3.51-2.04-4.642-3.652-.635-.33-1.342-.708-2.098-1.128-3.013-1.677-6.799-4.02-9.944-6.766-2.096-1.835-3.92-3.842-5.02-6.045C10.386 48.719 10 47.382 10 46c0-.845.147-1.646.425-2.377.276-.731.68-1.39 1.17-1.97.984-1.16 2.294-2.012 3.745-2.674 2.903-1.316 6.426-1.897 9.487-2.18 1.95-.178 3.704-.225 4.97-.229.854-.73 1.832-1.333 2.919-1.758l23.293-9.11c1.196-.468 2.46-.702 3.722-.702zm-.172 13.177c-1.221 0-2.443.07-3.66.202l-24.678 9.21v10.46c0 2.148 1.316 4.077 3.317 4.86l13.478 5.271c3.767 1.473 7.74 2.21 11.715 2.21 3.975 0 7.949-.737 11.715-2.21l13.478-5.271c2.001-.783 3.318-2.712 3.318-4.86v-9.495L63.525 38.412c-1.317-.155-2.641-.235-3.966-.235zm32.153.784c.977 1.58 1.532 3.427 1.532 5.369v13.72c0 .792-.092 1.57-.267 2.32 2.893-1.616 6.474-3.858 9.347-6.368 1.952-1.701 3.563-3.53 4.425-5.275.496-.998.75-1.953.75-2.863 0-.56-.094-1.045-.262-1.49-.17-.446-.415-.854-.742-1.242-.65-.773-1.644-1.456-2.87-2.013-2.45-1.12-5.771-1.705-8.677-1.966-1.172-.106-2.275-.164-3.236-.192zm-64.062.159c-1.051.043-2.234.12-3.47.257-2.278.25-4.726.7-6.765 1.453-1.36.499-2.53 1.133-3.359 1.876-.475.424-.84.878-1.098 1.37-.292.563-.456 1.178-.457 1.924 0 .882.239 1.805.705 2.769.464.963 1.155 1.956 2.013 2.938 1.713 1.966 4.085 3.878 6.511 5.538 1.608 1.102 3.235 2.091 4.718 2.936-.147-.692-.23-1.405-.23-2.132V44.33c0-1.876.516-3.665 1.432-5.21zm31.382 2.062l.701.003c1.403.007 2.805.091 4.2.235l.236.025.165.08c2.374 1.169 4.727 2.38 7.047 3.662 1.158.648 2.32 1.286 3.46 1.969 1.148.668 2.28 1.37 3.397 2.105-1.283-.374-2.552-.782-3.804-1.224-1.26-.427-2.497-.9-3.74-1.36-2.401-.908-4.771-1.884-7.122-2.899-1.282-.072-2.564-.103-3.847-.105-.669.004-1.338.016-2.006.034-.617.016-1.232.052-1.848.085-2.765 1.048-5.553 2.04-8.37 2.958-1.446.46-2.892.922-4.355 1.34-1.46.425-2.93.828-4.423 1.171 1.324-.771 2.67-1.483 4.027-2.172 1.353-.695 2.723-1.349 4.093-2.002 2.748-1.288 5.526-2.5 8.327-3.653l.152-.062.208-.02c.698-.068 1.399-.102 2.1-.134.7-.032 1.402-.042 2.103-.033zm.7-11.18c-.646 0-1.29.119-1.901.359l-23.294 9.11c-2 .781-3.316 2.71-3.316 4.859v.59l24.108-8.997.152-.018c1.355-.152 2.717-.229 4.078-.229 1.48 0 2.959.09 4.43.27l.166.021 24.087 9.87V44.33c0-2.148-1.317-4.077-3.318-4.86l-23.292-9.11c-.612-.24-1.256-.358-1.9-.358z"/>
</svg>
