<?xml version="1.0" encoding="utf-8"?>
<!-- Generator: Adobe Illustrator 24.1.2, SVG Export Plug-In . SVG Version: 6.00 Build 0)  -->
<svg version="1.1" id="Ebene_1" xmlns="http://www.w3.org/2000/svg" xmlns:xlink="http://www.w3.org/1999/xlink" x="0px" y="0px"
	 viewBox="0 0 120 90" style="enable-background:new 0 0 120 90;" xml:space="preserve">
<style type="text/css">
	.st0{fill:#686867;}
</style>
<path class="st0" d="M93.5,78.6c-1,1.2-2.7,1.3-3.9,0.4c-0.1-0.1-0.3-0.3-0.4-0.4c-3.1-3.8-6.5-7.5-9.8-11.1
	c-3.4-3.6-6.8-7.1-10.3-10.5c-1.8-1.7-3.5-3.5-5.3-5.2c-1.8-1.7-3.6-3.4-5.4-5.1c-2.8-2.6-5.6-5.2-8.5-7.7
	c-4.7-0.8-12.6-6-17.6-10.9C26,21.6,27,18,29.8,15.1c2.9-2.9,6.5-3.8,12.9,2.6c5.1,5.1,10.4,13.3,11,17.9c2.4,2.8,5,5.5,7.5,8.3
	c1.7,1.8,3.4,3.6,5.1,5.4c1.7,1.8,3.4,3.5,5.2,5.3c3.4,3.5,7,7,10.5,10.3c3.6,3.4,7.2,6.7,11.1,9.8C94.3,75.7,94.5,77.4,93.5,78.6z"
	/>
</svg>
