<svg xmlns="http://www.w3.org/2000/svg" width="120" height="90" viewBox="0 0 120 90">
    <path fill="#425058" fill-rule="evenodd" d="M59.243 26.123c1.213 0 2.427.225 3.578.674l21.528 8.42 2.568-2.569c2.337-2.337 6.162-2.337 8.5 0 1.317 1.318 1.891 3.108 1.723 4.839 2.16.264 4.457.703 6.528 1.464 1.495.553 2.88 1.271 3.997 2.265.637.568 1.185 1.231 1.585 1.997.46.874.715 1.88.713 2.964 0 1.328-.37 2.612-.972 3.822-.603 1.21-1.437 2.357-2.414 3.45-1.954 2.18-4.487 4.15-7.002 5.839-1.4.938-2.796 1.787-4.082 2.524 2.256 2.344 2.233 6.104-.077 8.414-2.337 2.337-6.162 2.337-8.499 0l-2.773-2.773-11.89 4.65c-4.183 1.637-8.597 2.455-13.012 2.455-4.413 0-8.828-.818-13.01-2.455l-11.247-4.398-1.658 1.658c-2.337 2.337-6.161 2.337-8.499 0-2.066-2.066-2.302-5.293-.715-7.628-2.65-1.537-5.71-3.522-8.315-5.796-2.014-1.764-3.768-3.693-4.825-5.81C10.37 48.92 10 47.636 10 46.308c0-.813.141-1.583.408-2.285.266-.703.654-1.336 1.125-1.893.946-1.116 2.205-1.935 3.6-2.571 2.487-1.128 5.446-1.693 8.144-1.995-.52-2-.008-4.22 1.551-5.779 2.338-2.337 6.162-2.337 8.5 0l2.694 2.695 19.643-7.683c1.15-.45 2.364-.674 3.578-.674zm0 4.807c-.62 0-1.24.115-1.827.345l-18.478 7.226c.557 2.022.05 4.282-1.531 5.862-1.505 1.505-3.624 2.035-5.568 1.602v9.218c1.944-.433 4.063.097 5.568 1.602 1.917 1.916 2.258 4.832 1.031 7.108l9.545 3.733c3.62 1.416 7.44 2.124 11.26 2.124 3.82 0 7.64-.708 11.26-2.124l10.78-4.216c-.514-1.995 0-4.207 1.554-5.762 1.058-1.057 2.42-1.631 3.81-1.732v-8.957c-1.39-.101-2.752-.675-3.81-1.732-1.621-1.622-2.115-3.96-1.486-6.02L61.07 31.275c-.587-.23-1.207-.345-1.826-.345zm37.168 8.89c-.264.476-.593.925-.995 1.327l-3.962 3.962v12.656l2.28 2.28c2.757-1.548 6.133-3.67 8.851-6.047 1.877-1.635 3.425-3.393 4.253-5.07.477-.959.722-1.877.722-2.751 0-.539-.09-1.005-.252-1.433-.163-.428-.4-.82-.713-1.193-.626-.744-1.58-1.4-2.76-1.935-2.1-.962-4.868-1.51-7.424-1.796zm-71.966.04c-.269.024-.541.051-.816.081-2.19.24-4.542.673-6.502 1.397-1.307.48-2.432 1.09-3.228 1.803-.457.408-.808.844-1.056 1.317-.281.541-.438 1.132-.44 1.85 0 .847.23 1.734.678 2.66.446.926 1.11 1.88 1.935 2.824 1.647 1.89 3.926 3.728 6.259 5.324 1.533 1.05 3.084 1.994 4.5 2.802l1.285-1.285c-.02-.246-.029-.495-.029-.745V44.702c0-.683.077-1.352.212-2.003l-2.415-2.415c-.136-.136-.263-.279-.383-.425zm34.798 3.262c4.514 0 8.172 3.66 8.172 8.173 0 4.514-3.658 8.173-8.172 8.173-4.514 0-8.173-3.659-8.173-8.173s3.659-8.173 8.173-8.173z"/>
</svg>
