<svg id="Layer_1" data-name="Layer 1" xmlns="http://www.w3.org/2000/svg" viewBox="0 0 563.66 94.11">
    <defs>
        <style>
            .cls-1{fill:#00a2bc;}.cls-2{fill:#007c93;}.cls-3{fill:#009bbb;}.cls-4{fill:#d0d8db;}.cls-5{fill:#aabec7;}
        </style>
    </defs>
    <title>Remedymatch-Logo_(v1.1 01.04.20)</title>
    <path class="cls-1"
          d="M71.69,26.3H98.06a.72.72,0,0,1,.72.72v7.59a.72.72,0,0,1-.72.72H81.88v6.76h13a.71.71,0,0,1,.71.71v7.76a.71.71,0,0,1-.71.72h-13v7.64H98.06a.72.72,0,0,1,.72.72v7.48a.72.72,0,0,1-.72.72H71.69a.72.72,0,0,1-.72-.72V27A.72.72,0,0,1,71.69,26.3Z"/>
    <path class="cls-1"
          d="M163.38,26.3H189.8a.7.7,0,0,1,.7.7v7.63a.71.71,0,0,1-.7.7H173.6v6.76h13a.69.69,0,0,1,.7.69v7.8a.7.7,0,0,1-.7.7h-13v7.64h16.2a.71.71,0,0,1,.7.7v7.52a.7.7,0,0,1-.7.7H163.38a.69.69,0,0,1-.69-.7V27A.69.69,0,0,1,163.38,26.3Z"/>
    <path class="cls-1"
          d="M201.43,26.3h14.18c11.25,0,20.85,8.75,21.26,20a20.78,20.78,0,0,1-20.76,21.54H201.43a.72.72,0,0,1-.72-.72V27A.72.72,0,0,1,201.43,26.3ZM211.57,57h4.59a9.83,9.83,0,1,0,0-19.66h-4.59Z"/>
    <path class="cls-1"
          d="M262.69,52.55V67.14a.7.7,0,0,1-.7.7h-9.4a.7.7,0,0,1-.7-.7V52.55L237,26.82a.35.35,0,0,1,.31-.52h11.55a.71.71,0,0,1,.62.36l7.77,13.49,7.83-13.49a.72.72,0,0,1,.62-.36h11.56a.35.35,0,0,1,.3.52Z"/>
    <path class="cls-2"
          d="M381.12,67.37l19-40.65a.73.73,0,0,1,.66-.42h4a.72.72,0,0,1,.65.41l19.14,40.66a.33.33,0,0,1-.3.47H414.3a.68.68,0,0,1-.63-.4l-2.36-5h-17l-2.31,5a.7.7,0,0,1-.63.4h-9.95A.33.33,0,0,1,381.12,67.37Zm17.45-14.15h8.48l-4.21-9.14Z"/>
    <path class="cls-2"
          d="M421.2,26.24h33.34a.7.7,0,0,1,.7.7V36.4a.7.7,0,0,1-.7.7H443.21V67.15a.69.69,0,0,1-.69.69H433a.69.69,0,0,1-.7-.69V37.1H421.2a.7.7,0,0,1-.7-.7V26.94A.7.7,0,0,1,421.2,26.24Z"/>
    <path class="cls-2"
          d="M485.37,39.57a9.73,9.73,0,0,0-5.86-2.23,9.87,9.87,0,0,0-10.37,9.56,9.44,9.44,0,0,0,9.75,9.92,9.64,9.64,0,0,0,6.48-2.3.71.71,0,0,1,1,0l6.76,6.66a.69.69,0,0,1,0,1A20.76,20.76,0,1,1,478.89,26.3,20.51,20.51,0,0,1,493,31.84a.7.7,0,0,1,0,1l-6.67,6.71A.7.7,0,0,1,485.37,39.57Z"/>
    <path class="cls-2"
          d="M511.51,27V41.09H524.7V27a.7.7,0,0,1,.7-.7h9.51a.7.7,0,0,1,.7.7V67.14a.7.7,0,0,1-.7.7H525.4a.7.7,0,0,1-.7-.7V52H511.51V67.14a.7.7,0,0,1-.7.7H501.3a.7.7,0,0,1-.7-.7V27a.7.7,0,0,1,.7-.7h9.51A.7.7,0,0,1,511.51,27Z"/>
    <path class="cls-3"
          d="M293.37,38.94H282a1.41,1.41,0,0,0-1.41,1.41V53.67A1.41,1.41,0,0,0,282,55.08h11.35L301.44,47Z"/>
    <path class="cls-4"
          d="M309.5,38.94V27.59a1.41,1.41,0,0,0-1.4-1.41H294.78a1.41,1.41,0,0,0-1.41,1.41V38.94L301.44,47Z"/>
    <path class="cls-5"
          d="M293.37,55.08V66.43a1.41,1.41,0,0,0,1.41,1.41H308.1a1.41,1.41,0,0,0,1.4-1.41V55.08L301.44,47Z"/>
    <path class="cls-2"
          d="M309.5,38.94,301.44,47l8.06,8.07h11.36a1.41,1.41,0,0,0,1.41-1.41V40.35a1.41,1.41,0,0,0-1.41-1.41Z"/>
    <path class="cls-2"
          d="M354.78,46l9.77-19.27a.71.71,0,0,1,.62-.38h10.72a.71.71,0,0,1,.71.71V67.13a.71.71,0,0,1-.71.71h-9.54a.71.71,0,0,1-.71-.71V42.75l-8.21,15.83a.71.71,0,0,1-.63.38h-4a.73.73,0,0,1-.63-.38l-8.27-16V67.13a.71.71,0,0,1-.71.71h-9.55a.71.71,0,0,1-.71-.71V27a.71.71,0,0,1,.71-.71h10.6a.71.71,0,0,1,.62.38Z"/>
    <path class="cls-1"
          d="M130.87,46l9.77-19.26a.7.7,0,0,1,.62-.39H152a.71.71,0,0,1,.71.71V67.21a.7.7,0,0,1-.71.71h-9.54a.71.71,0,0,1-.71-.71V42.84l-8.21,15.83a.7.7,0,0,1-.63.37h-4a.71.71,0,0,1-.63-.38l-8.27-16V67.21a.71.71,0,0,1-.71.71H109.7a.71.71,0,0,1-.71-.71V27.09a.71.71,0,0,1,.71-.71h10.6a.71.71,0,0,1,.62.38Z"/>
    <path class="cls-1"
          d="M50.66,67.43,45.73,56.82H39v11H28.06V26.3H45.8c5.06,0,11.2,3.63,13.38,8.19a15.37,15.37,0,0,1-3.26,18.28l6.83,14.59a.34.34,0,0,1-.3.48H51.3A.72.72,0,0,1,50.66,67.43ZM39,47.4h5.38a5.31,5.31,0,0,0,4.82-2.9,6.06,6.06,0,0,0-5.26-9H39Z"/>
</svg>