<svg xmlns="http://www.w3.org/2000/svg" width="120" height="91" viewBox="0 0 120 91">
    <path fill="#425058" fill-rule="evenodd" d="M64.557 42.273c2.867-1.53 5.709-3.118 8.443-4.94-3.163.887-6.22 2.009-9.248 3.187-3.025 1.191-6.008 2.47-8.956 3.826-2.948 1.356-5.862 2.786-8.735 4.305-2.867 1.532-5.71 3.118-8.444 4.938 3.161-.891 6.217-2.014 9.247-3.19 3.024-1.192 6.007-2.47 8.956-3.824 2.95-1.352 5.863-2.784 8.737-4.302m23.97-14.082c3.157 0 6.036 1.297 8.105 3.369 2.071 2.068 3.368 4.948 3.368 8.105v13.052c0 4.407-1.808 8.424-4.703 11.315-2.893 2.896-6.91 4.705-11.317 4.704h-8.69c-2.276 0-4.49-.744-6.305-2.117l-4.763-3.607c-1.223-.926-2.669-1.384-4.123-1.385-1.492.001-2.975.484-4.214 1.455l-4.37 3.428c-1.84 1.442-4.109 2.226-6.446 2.226h-9.05c-4.407 0-8.423-1.808-11.316-4.704C21.808 61.141 20 57.124 20 52.717V40.3c0-3.332 1.368-6.37 3.555-8.554 2.184-2.188 5.223-3.556 8.555-3.556zm0 4.908H32.11c-1.979.001-3.768.805-5.085 2.118-1.313 1.316-2.116 3.105-2.117 5.084v12.416c.001 3.054 1.245 5.82 3.266 7.845 2.025 2.022 4.791 3.266 7.846 3.266h9.049c1.24 0 2.442-.415 3.417-1.18l4.37-3.428c2.123-1.664 4.687-2.502 7.243-2.5 2.49-.001 4.992.793 7.086 2.379l4.762 3.607c.963.728 2.136 1.122 3.343 1.122h8.69c3.055 0 5.821-1.244 7.846-3.266 2.022-2.025 3.266-4.791 3.266-7.845V39.665c0-1.804-.733-3.434-1.93-4.635-1.202-1.197-2.832-1.93-4.635-1.93zm-7.882 7.348c-1.978 1.472-4.061 2.72-6.174 3.899-2.118 1.17-4.276 2.254-6.469 3.26-2.193 1.006-4.42 1.937-6.688 2.78-2.272.835-4.575 1.603-6.98 2.148 1.981-1.468 4.064-2.715 6.177-3.894 2.117-1.172 4.275-2.255 6.467-3.264 2.192-1.009 4.42-1.94 6.687-2.784 2.272-.835 4.575-1.602 6.98-2.145z"/>
</svg>
